/vscmnt/brussel_pixiu_data/_data_brussel/112/vsc11236/PredSimResults/SUBJ07mtu3D/worker5.mot
version=1
nRows=11
nColumns=50
inDegrees=yes
endheader
                time	         pelvis_tilt	         pelvis_list	     pelvis_rotation	           pelvis_tx	           pelvis_ty	           pelvis_tz	       hip_flexion_r	     hip_adduction_r	      hip_rotation_r	        knee_angle_r	       ankle_angle_r	         mtp_angle_r	       hip_flexion_l	     hip_adduction_l	      hip_rotation_l	        knee_angle_l	       ankle_angle_l	         mtp_angle_l	    lumbar_extension	      lumbar_bending	     lumbar_rotation	 ercspn_r/activation	 intobl_r/activation	 extobl_r/activation	    abd_r/activation	    add_r/activation	hamstrings_r/activation	bifemsh_r/activation	glut_max_r/activation	iliopsoas_r/activation	rect_fem_r/activation	  vasti_r/activation	gastroc_r/activation	 soleus_r/activation	tib_ant_r/activation	 ercspn_l/activation	 intobl_l/activation	 extobl_l/activation	    abd_l/activation	    add_l/activation	hamstrings_l/activation	bifemsh_l/activation	glut_max_l/activation	iliopsoas_l/activation	rect_fem_l/activation	  vasti_l/activation	gastroc_l/activation	 soleus_l/activation	tib_ant_l/activation	
          1.58205636	         -5.32612466	          1.19683914	         -5.20161310	          1.93010876	          0.85254009	          0.00728286	        -12.24848243	         -0.22967692	          5.40513499	         -8.60604690	          8.99084185	         25.13250502	         31.24157712	         -0.15205825	         -1.17962803	         -8.17198555	          6.56285855	          0.25627750	         -5.87066837	          0.97974068	          0.75744506	          0.07129284	          0.01000005	          0.01000011	          0.03904537	          0.01000183	          0.02129661	          0.12354432	          0.02642199	          0.32559718	          0.01000054	          0.01000012	          0.07657409	          0.27038556	          0.02092576	          0.12060043	          0.15834390	          0.02642118	          0.02618727	          0.10371788	          0.06537252	          0.01008316	          0.02482247	          0.01000021	          0.02529858	          0.04643956	          0.01912610	          0.01108776	          0.29757391	
          1.59260340	         -5.36701977	          1.12054976	         -5.11467972	          1.94499771	          0.85130982	          0.00702725	        -12.30202360	         -0.10998041	          4.95035306	        -10.30987499	          8.26961585	         26.83812861	         30.63072644	          0.15405265	         -0.30381204	         -8.45100657	          6.15881400	          0.26282598	         -5.71862261	          0.60526515	          0.91489770	          0.11477836	          0.01000007	          0.01000009	          0.03320794	          0.02982556	          0.01811884	          0.10507406	          0.02247182	          0.33155838	          0.01175657	          0.01000046	          0.06512601	          0.25449923	          0.01779729	          0.11136606	          0.13467096	          0.02247113	          0.02227218	          0.14100254	          0.05559912	          0.01000113	          0.09099329	          0.01000539	          0.02151646	          0.04827289	          0.01626673	          0.01582955	          0.29259579	
          1.60315044	         -5.39532992	          1.04899537	         -4.99182275	          1.96016464	          0.85016104	          0.00675236	        -12.25257460	          0.01303983	          4.46099376	        -12.24676928	          7.42730114	         28.51266832	         29.91682923	          0.40263109	          0.64217874	         -8.94521803	          5.84138336	          0.24465717	         -5.53587037	          0.20970601	          1.07069365	          0.12669774	          0.01000005	          0.01000014	          0.02824323	          0.03055039	          0.02056044	          0.08936518	          0.01911220	          0.28520970	          0.01000051	          0.01000034	          0.05538944	          0.23500453	          0.01513653	          0.09471747	          0.15130014	          0.01911162	          0.05286073	          0.11992227	          0.05059539	          0.02338142	          0.10198426	          0.01000020	          0.01829977	          0.04105612	          0.01383499	          0.01346309	          0.32561837	
          1.61369749	         -5.41456542	          0.98873677	         -4.82650068	          1.97539188	          0.84922688	          0.00640953	        -12.01820694	          0.13270095	          3.93094401	        -14.52299776	          6.44636589	         30.09688463	         29.17422664	          0.64074239	          1.51883996	         -9.38973089	          5.41607276	          0.24099752	         -5.34834493	         -0.20707926	          1.22249028	          0.14098245	          0.01000006	          0.01000017	          0.02402077	          0.02598321	          0.02170556	          0.07600486	          0.01625487	          0.25401283	          0.01000050	          0.01000033	          0.04710853	          0.20466031	          0.01287357	          0.10291721	          0.12868035	          0.01625438	          0.09473555	          0.11415932	          0.05121370	          0.01988735	          0.11477578	          0.01000016	          0.01556398	          0.05683350	          0.01176666	          0.01145033	          0.35768485	
          1.62424453	         -5.42643039	          0.94072725	         -4.62066196	          1.99050610	          0.84863822	          0.00599630	        -11.54231991	          0.24535525	          3.35900633	        -17.20365769	          5.32180756	         31.44160417	         28.48080926	          0.88789350	          2.30115215	         -9.89513890	          4.93280184	          0.22725592	         -5.17489163	         -0.64394880	          1.36843886	          0.15849105	          0.01000005	          0.01000012	          0.02042958	          0.03311655	          0.01982135	          0.06464199	          0.01382471	          0.21603762	          0.01000021	          0.01000009	          0.04006564	          0.17406286	          0.01094893	          0.10082326	          0.10944222	          0.01382431	          0.11912611	          0.11570803	          0.04999658	          0.01691471	          0.11373998	          0.01000012	          0.01323723	          0.10577309	          0.01000760	          0.01000007	          0.38562206	
          1.63479157	         -5.43199474	          0.90765797	         -4.37891179	          2.00542755	          0.84849776	          0.00552342	        -10.78948431	          0.34191581	          2.74382145	        -20.32633791	          4.07186845	         32.31194333	         27.81886639	          1.14638202	          2.99233880	        -10.45761813	          4.57535910	          0.21095892	         -5.02080246	         -1.09989460	          1.50650854	          0.17547622	          0.01000005	          0.01000015	          0.01737528	          0.04142264	          0.01685971	          0.05497803	          0.01175787	          0.18373931	          0.01000016	          0.01000005	          0.03407569	          0.14803983	          0.01000002	          0.09552110	          0.09308026	          0.01175755	          0.14412209	          0.11491034	          0.05094026	          0.01438650	          0.10923477	          0.01000012	          0.01125841	          0.15200485	          0.01000038	          0.01000024	          0.39564860	
          1.64533861	         -5.43309844	          0.88780607	         -4.10263973	          2.02009359	          0.84890279	          0.00500748	         -9.73313078	          0.41648200	          2.08560956	        -23.89939592	          2.64971873	         32.54725338	         27.14234939	          1.40697791	          3.58785065	        -10.99411255	          4.39268390	          0.19469418	         -4.88958979	         -1.56978826	          1.63278317	          0.18624692	          0.01000005	          0.01000020	          0.01477762	          0.05219645	          0.01434004	          0.04675972	          0.01000005	          0.15626966	          0.01000012	          0.01000002	          0.02898126	          0.12590733	          0.01000002	          0.09000609	          0.07916445	          0.01000007	          0.15970509	          0.11412827	          0.05107013	          0.01223615	          0.10338730	          0.01000011	          0.01000051	          0.18953031	          0.01000173	          0.01000113	          0.39391377	
          1.65588566	         -5.43142434	          0.87651793	         -3.79284193	          2.03446873	          0.84989762	          0.00446676	         -8.37020972	          0.46456448	          1.39173526	        -27.86226143	          0.90909388	         32.14853606	         26.40333608	          1.65892397	          4.09273335	        -11.40578489	          4.36441706	          0.18197973	         -4.78241116	         -2.04612895	          1.74322264	          0.19354550	          0.01000004	          0.01000017	          0.01256831	          0.06016408	          0.01219686	          0.04372812	          0.01000001	          0.13290681	          0.01000009	          0.01000001	          0.02464846	          0.10708373	          0.01000029	          0.08340529	          0.06732910	          0.01000010	          0.16869318	          0.11299103	          0.05249825	          0.01040730	          0.09365233	          0.01000009	          0.01000073	          0.21138145	          0.01000057	          0.01000025	          0.38176502	
          1.66643270	         -5.42762436	          0.86619630	         -3.45263309	          2.04855002	          0.85142922	          0.00391375	         -6.73069756	          0.48358540	          0.66981673	        -32.11500103	         -1.12694569	         30.91994863	         25.57128625	          1.89199229	          4.53928586	        -11.63042044	          4.45206090	          0.17366749	         -4.69801200	         -2.51725958	          1.83661804	          0.19503516	          0.01000006	          0.01000015	          0.01068930	          0.06073248	          0.01037380	          0.03719082	          0.01000001	          0.11303678	          0.01000011	          0.01000001	          0.02096344	          0.09107432	          0.05415847	          0.07093596	          0.05726316	          0.01000013	          0.18103479	          0.10772038	          0.05317999	          0.01000089	          0.07965105	          0.01000008	          0.01000060	          0.20502192	          0.01000054	          0.01000033	          0.36163291	
          1.67697974	         -5.42168311	          0.85576151	         -3.09084381	          2.06232074	          0.85333508	          0.00336260	         -4.87924031	          0.46947500	         -0.06669527	        -36.55913126	         -3.09760091	         28.43927301	         24.66756697	          2.10553479	          4.96538628	        -11.70315036	          4.62401942	          0.17182787	         -4.63797157	         -2.97812951	          1.91720627	          0.19712722	          0.01550526	          0.01000028	          0.01000001	          0.05165277	          0.01001018	          0.03163081	          0.01000005	          0.09613740	          0.01000052	          0.01000018	          0.01782935	          0.07745837	          0.16937713	          0.06033080	          0.04870212	          0.01000027	          0.19510683	          0.09373102	          0.05529611	          0.01068591	          0.06774298	          0.01000010	          0.01000036	          0.18491663	          0.01000652	          0.01000080	          0.33882404	
          1.68752678	         -5.41319940	          0.84939394	         -2.71651527	          2.07577947	          0.85541050	          0.00282985	         -2.93092669	          0.42994704	         -0.79067695	        -41.03157579	         -4.24683145	         24.98998212	         23.73578802	          2.30454419	          5.38212498	        -11.69805705	          4.84020810	          0.17672084	         -4.60180357	         -3.42933096	          1.98851516	          0.19828573	          0.01318721	          0.01000092	          0.01000002	          0.04393050	          0.01000136	          0.03270123	          0.01000002	          0.08176676	          0.04464219	          0.01000001	          0.02384419	          0.06587807	          0.17762923	          0.05131120	          0.04142100	          0.01000015	          0.19344412	          0.08559035	          0.05363601	          0.01000161	          0.06786161	          0.01000007	          0.01000041	          0.18025700	          0.01000032	          0.01000009	          0.31823869	
